<svg width="46" height="46" viewBox="0 0 46 46" fill="none" xmlns="http://www.w3.org/2000/svg">
    <path d="M30.8936 44.9243C26.0952 43.2684 22.5542 37.66 22.5542 31.0121C22.5542 23.6895 26.8508 17.6299 32.3916 16.724C32.8483 17.3743 35.9721 22.2968 32.1397 30.1926C28.9032 36.863 29.7715 41.9923 30.8936 44.9243ZM36.769 17.1018C37.8911 20.0338 38.7594 25.1631 35.5229 31.8335C31.6905 39.7293 34.8143 44.6518 35.271 45.3021C40.8118 44.3962 45.1084 38.3366 45.1084 31.014C45.1084 24.3661 41.5674 18.7595 36.769 17.1018ZM13.7731 14.9347C5.787 17.6995 4.11047 23.0016 3.80599 24.3605C5.51071 25.6404 7.62329 26.319 9.96705 26.319C10.5741 26.319 11.1963 26.2738 11.8297 26.1836C15.2109 25.7006 18.5583 23.9508 21.2536 21.2537C26.005 16.5022 27.4879 9.97466 25.2795 5.34541C23.9206 8.27934 20.81 12.4989 13.775 14.9366L13.7731 14.9347ZM12.542 11.3805C20.5356 8.61201 22.2084 3.30237 22.511 1.951C20.3627 0.338375 17.5603 -0.3063 14.4854 0.131628C11.1042 0.614664 7.75674 2.3645 5.06151 5.0616C0.308208 9.81491 -1.17473 16.3406 1.03746 20.9717C2.39635 18.0378 5.50696 13.8183 12.542 11.3805Z" fill="#1E0F00"/>
</svg>
