<svg xmlns="http://www.w3.org/2000/svg" xmlns:xlink="http://www.w3.org/1999/xlink" width="500" zoomAndPan="magnify" viewBox="0 0 375 374.999991" height="500" preserveAspectRatio="xMidYMid meet" version="1.0"><defs><clipPath id="4d1bdb0a3b"><path d="M 43 81 L 268 81 L 268 199 L 43 199 Z M 43 81 " clip-rule="nonzero"/></clipPath><clipPath id="8c23fa8ee3"><path d="M 275.304688 22.804688 L 359.289062 202.9375 L 99.625 324.003906 L 15.640625 143.871094 Z M 275.304688 22.804688 " clip-rule="nonzero"/></clipPath><clipPath id="2c7a993539"><path d="M 275.304688 22.804688 L 359.289062 202.9375 L 99.625 324.003906 L 15.640625 143.871094 Z M 275.304688 22.804688 " clip-rule="nonzero"/></clipPath><clipPath id="228d4dd630"><path d="M 275.304688 22.804688 L 359.289062 202.9375 L 99.625 324.003906 L 15.640625 143.871094 Z M 275.304688 22.804688 " clip-rule="nonzero"/></clipPath><clipPath id="c0b3a696ed"><path d="M 91 138 L 310 138 L 310 265 L 91 265 Z M 91 138 " clip-rule="nonzero"/></clipPath><clipPath id="9c8e9c2d54"><path d="M 275.304688 22.804688 L 359.289062 202.9375 L 99.625 324.003906 L 15.640625 143.871094 Z M 275.304688 22.804688 " clip-rule="nonzero"/></clipPath><clipPath id="284c5e235c"><path d="M 275.304688 22.804688 L 359.289062 202.9375 L 99.625 324.003906 L 15.640625 143.871094 Z M 275.304688 22.804688 " clip-rule="nonzero"/></clipPath><clipPath id="3ec59e993d"><path d="M 275.304688 22.804688 L 359.289062 202.9375 L 99.625 324.003906 L 15.640625 143.871094 Z M 275.304688 22.804688 " clip-rule="nonzero"/></clipPath><clipPath id="07fe9b686c"><path d="M 52 64 L 317 64 L 317 223 L 52 223 Z M 52 64 " clip-rule="nonzero"/></clipPath><clipPath id="d4d4854f28"><path d="M 275.304688 22.804688 L 359.289062 202.9375 L 99.625 324.003906 L 15.640625 143.871094 Z M 275.304688 22.804688 " clip-rule="nonzero"/></clipPath><clipPath id="cc414529a5"><path d="M 275.304688 22.804688 L 359.289062 202.9375 L 99.625 324.003906 L 15.640625 143.871094 Z M 275.304688 22.804688 " clip-rule="nonzero"/></clipPath><clipPath id="bc913978e7"><path d="M 275.304688 22.804688 L 359.289062 202.9375 L 99.625 324.003906 L 15.640625 143.871094 Z M 275.304688 22.804688 " clip-rule="nonzero"/></clipPath><clipPath id="65dec7150c"><path d="M 54 115 L 324 115 L 324 282 L 54 282 Z M 54 115 " clip-rule="nonzero"/></clipPath><clipPath id="bb19aa21e5"><path d="M 275.304688 22.804688 L 359.289062 202.9375 L 99.625 324.003906 L 15.640625 143.871094 Z M 275.304688 22.804688 " clip-rule="nonzero"/></clipPath><clipPath id="cf7da259cf"><path d="M 275.304688 22.804688 L 359.289062 202.9375 L 99.625 324.003906 L 15.640625 143.871094 Z M 275.304688 22.804688 " clip-rule="nonzero"/></clipPath><clipPath id="ed8f648003"><path d="M 275.304688 22.804688 L 359.289062 202.9375 L 99.625 324.003906 L 15.640625 143.871094 Z M 275.304688 22.804688 " clip-rule="nonzero"/></clipPath><clipPath id="d6e0ca6545"><path d="M 314.402344 106.8125 L 359.242188 202.984375 L 99.683594 324 L 54.84375 227.824219 Z M 314.402344 106.8125 " clip-rule="nonzero"/></clipPath></defs><g clip-path="url(#4d1bdb0a3b)"><g clip-path="url(#8c23fa8ee3)"><g clip-path="url(#2c7a993539)"><g clip-path="url(#228d4dd630)"><path fill="#c3996b" d="M 43.707031 191.59375 C 44.75 174.40625 53.011719 155.921875 67.144531 139.257812 C 83.769531 119.664062 106.886719 103.808594 134.007812 93.402344 C 163.46875 82.105469 194.46875 78.734375 221.304688 83.917969 C 240.433594 87.609375 256.089844 95.28125 267.042969 106.257812 C 247.914062 109.078125 220.214844 117.417969 186.84375 139.707031 C 179.558594 144.574219 172.128906 149.851562 164.945312 154.953125 C 144.136719 169.734375 122.621094 185.015625 101.191406 192.90625 C 79.871094 200.757812 61.539062 200.351562 43.707031 191.59375 " fill-opacity="1" fill-rule="nonzero"/></g></g></g></g><g clip-path="url(#c0b3a696ed)"><g clip-path="url(#9c8e9c2d54)"><g clip-path="url(#284c5e235c)"><g clip-path="url(#3ec59e993d)"><path fill="#c3996b" d="M 91.378906 250.195312 C 118.523438 252.324219 155.773438 244.125 199.164062 205.125 C 210.714844 194.746094 232.648438 177.335938 256.445312 162.4375 C 277.734375 149.113281 295.664062 140.785156 308.660156 138.144531 C 311.445312 157.871094 304.40625 179.734375 288.589844 200.167969 C 271.417969 222.359375 245.375 240.941406 215.261719 252.492188 C 184.777344 264.183594 152.675781 267.707031 124.863281 262.417969 C 112.242188 260.015625 100.90625 255.859375 91.378906 250.195312 " fill-opacity="1" fill-rule="nonzero"/></g></g></g></g><g clip-path="url(#07fe9b686c)"><g clip-path="url(#d4d4854f28)"><g clip-path="url(#cc414529a5)"><g clip-path="url(#bc913978e7)"><path fill="#8a5d3b" d="M 127.636719 203.492188 C 104.628906 213.847656 84.1875 214.445312 63.574219 205.308594 C 62.648438 186.183594 69.964844 165.050781 84.375 145.429688 C 100.28125 123.773438 123.199219 105.558594 150.652344 92.757812 C 180.484375 78.847656 212.554688 73.089844 240.953125 76.53125 C 264.660156 79.40625 284.109375 88.472656 296.75 102.351562 C 276.097656 105.621094 246.777344 115.683594 211.796875 142.765625 C 204.78125 148.199219 197.617188 154.082031 190.691406 159.769531 C 170.371094 176.460938 149.363281 193.71875 127.636719 203.492188 Z M 197.503906 168.058594 C 204.375 162.414062 211.476562 156.582031 218.371094 151.242188 C 259.199219 119.632812 291.582031 113.046875 307.246094 111.929688 L 316.484375 111.277344 L 311.335938 103.589844 C 282.925781 61.203125 211.902344 52.367188 146.121094 83.035156 C 86.894531 110.648438 48.640625 162.59375 53.101562 209.359375 L 53.386719 212.355469 L 56.097656 213.671875 C 80.402344 225.464844 105.246094 225.335938 132.039062 213.277344 C 155.070312 202.914062 176.640625 185.195312 197.503906 168.058594 " fill-opacity="1" fill-rule="nonzero"/></g></g></g></g><g clip-path="url(#65dec7150c)"><g clip-path="url(#bb19aa21e5)"><g clip-path="url(#cf7da259cf)"><g clip-path="url(#ed8f648003)"><g clip-path="url(#d6e0ca6545)"><path fill="#8a5d3b" d="M 86.820312 250.777344 C 114.195312 255.71875 155.226562 250.363281 202.074219 201.914062 C 212.78125 190.847656 233.257812 172.109375 255.738281 155.746094 C 278.238281 139.367188 296.992188 129.460938 310.382812 126.828125 C 322.679688 170.304688 286.367188 225.121094 225.578125 253.464844 C 195.882812 267.308594 163.9375 273.085938 135.628906 269.730469 C 115.976562 267.402344 99.21875 260.824219 86.820312 250.777344 Z M 306.46875 198.367188 C 323.355469 171.332031 327.863281 143.167969 319.160156 119.058594 L 317.761719 115.191406 L 313.660156 115.539062 C 278.28125 118.542969 218.003906 170.007812 194.355469 194.460938 C 139.171875 251.527344 93.878906 244.480469 71.789062 235.203125 L 54.992188 228.144531 L 65.269531 243.175781 C 93.902344 285.050781 164.765625 293.652344 230.113281 263.1875 C 262.742188 247.972656 289.859375 224.953125 306.46875 198.367188 " fill-opacity="1" fill-rule="nonzero"/></g></g></g></g></g></svg>